<svg width="44" height="44" viewBox="0 0 44 44" fill="none" xmlns="http://www.w3.org/2000/svg">
<path fill-rule="evenodd" clip-rule="evenodd" d="M0 22C0 9.84974 9.84974 0 22 0C34.1503 0 44 9.84974 44 22C44 34.1503 34.1503 44 22 44C9.84974 44 0 34.1503 0 22Z" fill="white" fill-opacity="0.97"/>
<path fill-rule="evenodd" clip-rule="evenodd" d="M30.3333 20.6665H18.3967L22.2558 16.8448C22.9067 16.194 22.9067 15.139 22.2558 14.4881C21.605 13.8373 20.5492 13.8373 19.8992 14.4881L12 22.3331L19.8992 30.1781C20.5492 30.829 21.605 30.829 22.2558 30.1781C22.9067 29.5273 22.9067 28.4723 22.2558 27.8215L18.3967 23.9998H30.3333C31.2533 23.9998 32 23.2531 32 22.3331C32 21.4131 31.2533 20.6665 30.3333 20.6665Z" fill="#333333"/>
</svg>
