<svg width="16" height="16" viewBox="0 0 16 16" fill="none" xmlns="http://www.w3.org/2000/svg">
<path fill-rule="evenodd" clip-rule="evenodd" d="M4.24421 6.25153C4.40688 6.0842 4.61955 6.0002 4.83355 6.0002C5.04688 6.0002 5.25955 6.0842 5.42288 6.25153L8.00021 8.9062L10.5775 6.25153C10.9029 5.9162 11.4302 5.9162 11.7562 6.25153C12.0815 6.58686 12.0815 7.1302 11.7562 7.46486L8.00021 11.3335L4.24421 7.46486C3.91888 7.1302 3.91888 6.58686 4.24421 6.25153ZM8.00021 16.0002C12.4182 16.0002 16.0002 12.4182 16.0002 8.0002C16.0002 3.58153 12.4182 0.000197574 8.00021 0.000197188C3.58155 0.000196802 0.000214232 3.58153 0.000213846 8.0002C0.000213459 12.4182 3.58155 16.0002 8.00021 16.0002Z" fill="#111111"/>
</svg>
