<svg width="20" height="20" viewBox="0 0 20 20" fill="none" xmlns="http://www.w3.org/2000/svg">
<path fill-rule="evenodd" clip-rule="evenodd" d="M10 7.5C8.61917 7.5 7.5 8.61917 7.5 10C7.5 11.3808 8.61917 12.5 10 12.5C11.3808 12.5 12.5 11.3808 12.5 10C12.5 8.61917 11.3808 7.5 10 7.5Z" fill="#111111"/>
<path fill-rule="evenodd" clip-rule="evenodd" d="M2.5 7.5C1.11917 7.5 0 8.61917 0 10C0 11.3808 1.11917 12.5 2.5 12.5C3.88083 12.5 5 11.3808 5 10C5 8.61917 3.88083 7.5 2.5 7.5Z" fill="#111111"/>
<path fill-rule="evenodd" clip-rule="evenodd" d="M17.5 7.5C16.1192 7.5 15 8.61917 15 10C15 11.3808 16.1192 12.5 17.5 12.5C18.8808 12.5 20 11.3808 20 10C20 8.61917 18.8808 7.5 17.5 7.5Z" fill="#111111"/>
</svg>
