<svg width="16" height="16" viewBox="0 0 16 16" fill="none" xmlns="http://www.w3.org/2000/svg">
<path fill-rule="evenodd" clip-rule="evenodd" d="M6 13C5.356 13 4.83333 12.4773 4.83333 11.8333C4.83333 11.1893 5.356 10.6667 6 10.6667C6.644 10.6667 7.16667 11.1893 7.16667 11.8333C7.16667 12.4773 6.644 13 6 13ZM14.8333 10.6667H9.286C8.80333 9.31066 7.522 8.33332 6 8.33332C4.478 8.33332 3.19667 9.31066 2.714 10.6667H1.16667C0.522667 10.6667 0 11.1893 0 11.8333C0 12.4773 0.522667 13 1.16667 13H2.714C3.19667 14.356 4.478 15.3333 6 15.3333C7.522 15.3333 8.80333 14.356 9.286 13H14.8333C15.4773 13 16 12.4773 16 11.8333C16 11.1893 15.4773 10.6667 14.8333 10.6667ZM10 2.99999C10.644 2.99999 11.1667 3.52266 11.1667 4.16666C11.1667 4.81066 10.644 5.33332 10 5.33332C9.356 5.33332 8.83333 4.81066 8.83333 4.16666C8.83333 3.52266 9.356 2.99999 10 2.99999ZM1.16667 5.33332H6.714C7.19667 6.68932 8.478 7.66666 10 7.66666C11.522 7.66666 12.8033 6.68932 13.286 5.33332H14.8333C15.4773 5.33332 16 4.81066 16 4.16666C16 3.52266 15.4773 2.99999 14.8333 2.99999H13.286C12.8033 1.64399 11.522 0.666656 10 0.666656C8.478 0.666656 7.19667 1.64399 6.714 2.99999H1.16667C0.522667 2.99999 0 3.52266 0 4.16666C0 4.81066 0.522667 5.33332 1.16667 5.33332Z" fill="#111111"/>
</svg>
