<svg width="20" height="20" viewBox="0 0 20 20" fill="none" xmlns="http://www.w3.org/2000/svg">
<path fill-rule="evenodd" clip-rule="evenodd" d="M18.3333 8.33336H11.6667V1.6667C11.6667 0.746697 10.92 3.05176e-05 10 3.05176e-05C9.08 3.05176e-05 8.33333 0.746697 8.33333 1.6667V8.33336H1.66667C0.746667 8.33336 0 9.08003 0 10C0 10.92 0.746667 11.6667 1.66667 11.6667H8.33333V18.3334C8.33333 19.2534 9.08 20 10 20C10.92 20 11.6667 19.2534 11.6667 18.3334V11.6667H18.3333C19.2533 11.6667 20 10.92 20 10C20 9.08003 19.2533 8.33336 18.3333 8.33336Z" fill="#111111"/>
</svg>
