<svg width="20" height="20" viewBox="0 0 20 20" fill="none" xmlns="http://www.w3.org/2000/svg">
<path fill-rule="evenodd" clip-rule="evenodd" d="M10 15.8334C8.84917 15.8334 7.91667 16.7659 7.91667 17.9167C7.91667 19.0675 8.84917 20 10 20C11.1508 20 12.0833 19.0675 12.0833 17.9167C12.0833 16.7659 11.1508 15.8334 10 15.8334ZM15.625 5.62503C15.625 7.60086 14.5583 9.4917 12.9075 10.4409C12.5283 10.6592 11.9567 11.5475 11.9567 12.3917C11.9567 13.4725 11.0808 14.3475 10 14.3475C8.91917 14.3475 8.04333 13.4725 8.04333 12.3917C8.04333 10.2667 9.26833 8.02003 10.9558 7.0492C11.3325 6.83336 11.7125 6.27503 11.7125 5.62503C11.7125 4.68086 10.9442 3.91336 10 3.91336C9.05583 3.91336 8.2875 4.68086 8.2875 5.62503C8.2875 6.70586 7.4125 7.5817 6.33167 7.5817C5.25083 7.5817 4.375 6.70586 4.375 5.62503C4.375 2.52336 6.8975 3.05176e-05 10 3.05176e-05C13.1025 3.05176e-05 15.625 2.52336 15.625 5.62503Z" fill="#111111"/>
</svg>
