<svg width="16" height="16" viewBox="0 0 16 16" fill="none" xmlns="http://www.w3.org/2000/svg">
<path fill-rule="evenodd" clip-rule="evenodd" d="M6.66667 10.6667C4.46133 10.6667 2.66667 8.872 2.66667 6.66667C2.66667 4.46133 4.46133 2.66667 6.66667 2.66667C8.872 2.66667 10.6667 4.46133 10.6667 6.66667C10.6667 8.872 8.872 10.6667 6.66667 10.6667ZM15.414 12.5853L12.5753 9.74733C13.0573 8.82533 13.3333 7.77867 13.3333 6.66667C13.3333 2.98467 10.3487 0 6.66667 0C2.98467 0 0 2.98467 0 6.66667C0 10.3487 2.98467 13.3333 6.66667 13.3333C7.77867 13.3333 8.82533 13.0573 9.74733 12.5753L12.5853 15.414C13.3667 16.1953 14.6327 16.1953 15.414 15.414C16.1953 14.6333 16.1953 13.3667 15.414 12.5853Z" fill="#111111"/>
</svg>
