<svg width="20" height="20" viewBox="0 0 20 20" fill="none" xmlns="http://www.w3.org/2000/svg">
<path fill-rule="evenodd" clip-rule="evenodd" d="M8.32617 6.38667L7.34617 7.36833C6.69617 8.01917 5.64117 8.02083 4.98867 7.37C4.33783 6.72 4.337 5.665 4.987 5.01333L9.99033 0L15.0112 5.01083C15.662 5.66167 15.6628 6.71667 15.0128 7.36833C14.3628 8.01917 13.3078 8.02083 12.6562 7.37L11.6595 6.37583V11.5242C11.6595 12.4442 10.9128 13.1908 9.99283 13.1908C9.072 13.1908 8.32617 12.4442 8.32617 11.5242V6.38667ZM15.8333 13.3335C15.8333 12.4135 16.58 11.6668 17.5 11.6668C18.42 11.6668 19.1667 12.4135 19.1667 13.3335V18.3335C19.1667 19.2535 18.42 20.0002 17.5 20.0002H2.5C1.58 20.0002 0.833336 19.2535 0.833336 18.3335V13.3335C0.833336 12.4135 1.58 11.6668 2.5 11.6668C3.42 11.6668 4.16667 12.4135 4.16667 13.3335V16.6668H15.8333V13.3335Z" fill="#111111"/>
</svg>
