<svg width="16" height="16" viewBox="0 0 16 16" fill="none" xmlns="http://www.w3.org/2000/svg">
<path fill-rule="evenodd" clip-rule="evenodd" d="M10.1208 8.00016L14.8935 3.2275C15.4795 2.6415 15.4795 1.69216 14.8935 1.10616C14.3082 0.520164 13.3575 0.520164 12.7728 1.10616L7.99949 5.87883L3.22682 1.10616C2.64149 0.520164 1.69082 0.520164 1.10616 1.10616C0.520157 1.69216 0.520157 2.6415 1.10616 3.2275L5.87882 8.00016L1.10616 12.7728C0.520157 13.3588 0.520157 14.3082 1.10616 14.8942C1.39816 15.1868 1.78216 15.3335 2.16616 15.3335C2.55082 15.3335 2.93482 15.1868 3.22682 14.8942L7.99949 10.1215L12.7728 14.8942C13.0648 15.1868 13.4488 15.3335 13.8328 15.3335C14.2175 15.3335 14.6015 15.1868 14.8935 14.8942C15.4795 14.3082 15.4795 13.3588 14.8935 12.7728L10.1208 8.00016Z" fill="white"/>
</svg>
