<svg width="16" height="16" viewBox="0 0 16 16" fill="none" xmlns="http://www.w3.org/2000/svg">
<path fill-rule="evenodd" clip-rule="evenodd" d="M10.1207 8.00016L14.8933 3.22749C15.4793 2.64149 15.4793 1.69216 14.8933 1.10616C14.308 0.520157 13.3573 0.520157 12.7727 1.10616L7.99934 5.87882L3.22667 1.10616C2.64134 0.520157 1.69067 0.520157 1.106 1.10616C0.520004 1.69216 0.520004 2.64149 1.106 3.22749L5.87867 8.00016L1.106 12.7728C0.520004 13.3588 0.520004 14.3082 1.106 14.8942C1.398 15.1868 1.782 15.3335 2.166 15.3335C2.55067 15.3335 2.93467 15.1868 3.22667 14.8942L7.99934 10.1215L12.7727 14.8942C13.0647 15.1868 13.4487 15.3335 13.8327 15.3335C14.2173 15.3335 14.6013 15.1868 14.8933 14.8942C15.4793 14.3082 15.4793 13.3588 14.8933 12.7728L10.1207 8.00016Z" fill="#111111"/>
</svg>
